<svg width="2560" height="1440" viewBox="0 0 2560 1440" fill="none" xmlns="http://www.w3.org/2000/svg">
<g opacity="0.72" clip-path="url(#clip0_107_42)">
<path d="M2560 0H0V1440H2560V0Z" fill="#D1F8EF"/>
<path d="M0 659L61.1556 664.52C122.311 670.28 244.622 681.32 366.364 693.8C488.391 706.28 609.565 719.72 731.591 743.72C853.333 767.72 975.644 802.28 1097.39 830.6C1219.41 858.92 1340.59 881.48 1462.61 885.8C1584.36 890.12 1706.67 876.68 1828.41 877.4C1950.44 878.12 2071.61 893.48 2193.64 891.08C2315.38 888.68 2437.69 868.52 2498.84 858.68L2560 848.6V1247H2498.84C2437.69 1247 2315.38 1247 2193.64 1247C2071.61 1247 1950.44 1247 1828.41 1247C1706.67 1247 1584.36 1247 1462.61 1247C1340.59 1247 1219.41 1247 1097.39 1247C975.644 1247 853.333 1247 731.591 1247C609.565 1247 488.391 1247 366.364 1247C244.622 1247 122.311 1247 61.1556 1247H0V659Z" fill="#A1E3F9"/>
<path d="M0 995.948L61.1556 992.811C122.311 989.936 244.622 983.663 366.364 971.116C488.391 958.57 609.565 939.227 731.591 920.93C853.333 902.632 975.644 885.381 1097.39 894.53C1219.41 903.678 1340.59 939.227 1462.61 960.138C1584.36 981.049 1706.67 987.322 1828.41 972.946C1950.44 958.57 2071.61 923.544 2193.64 918.839C2315.38 914.134 2437.69 939.227 2498.84 952.035L2560 964.582V1307H2498.84C2437.69 1307 2315.38 1307 2193.64 1307C2071.61 1307 1950.44 1307 1828.41 1307C1706.67 1307 1584.36 1307 1462.61 1307C1340.59 1307 1219.41 1307 1097.39 1307C975.644 1307 853.333 1307 731.591 1307C609.565 1307 488.391 1307 366.364 1307C244.622 1307 122.311 1307 61.1556 1307H0V995.948Z" fill="#60ACD9"/>
<path d="M0 1206.47L61.1556 1183.56C122.311 1161.08 244.622 1115.26 366.364 1086.18C488.391 1056.66 609.565 1043.44 731.591 1075.6C853.333 1108.21 975.644 1185.76 1097.39 1224.09C1219.41 1262.43 1340.59 1260.67 1462.61 1227.62C1584.36 1194.57 1706.67 1130.24 1828.41 1093.23C1950.44 1056.66 2071.61 1047.84 2193.64 1039.91C2315.38 1031.54 2437.69 1024.49 2498.84 1020.52L2560 1017V1440H2498.84C2437.69 1440 2315.38 1440 2193.64 1440C2071.61 1440 1950.44 1440 1828.41 1440C1706.67 1440 1584.36 1440 1462.61 1440C1340.59 1440 1219.41 1440 1097.39 1440C975.644 1440 853.333 1440 731.591 1440C609.565 1440 488.391 1440 366.364 1440C244.622 1440 122.311 1440 61.1556 1440H0V1206.47Z" fill="#3674B5"/>
</g>
<defs>
<clipPath id="clip0_107_42">
<rect width="2560" height="1440" fill="white"/>
</clipPath>
</defs>
</svg>
