<svg width="467" height="790" viewBox="0 0 467 790" fill="none" xmlns="http://www.w3.org/2000/svg">
<path d="M446.957 246.743C445.49 253.665 440.355 258.141 435.221 262.894C424.034 273.185 410.739 280.892 397.215 287.768C302.498 335.899 186.417 345.036 89.6829 301.15C73.0409 293.582 56.9033 284.399 43.1955 272.124C37.7857 267.278 24.032 256.111 22.6567 248.45C20.9604 239.452 39.8488 241.528 45.9921 240.052C46.6797 239.867 47.4133 239.729 48.101 239.544C58.8288 237.052 69.8317 235.529 80.7888 234.514C154.463 227.5 229.603 241.759 302.36 227.961C337.661 221.27 372.596 207.933 408.355 211.21C418.029 212.087 427.885 214.302 435.679 220.116C436.275 220.578 436.825 220.993 437.376 221.547C444.252 227.638 448.791 237.883 446.911 246.697L446.957 246.743Z" fill="#3291D9"/>
<g style="mix-blend-mode:multiply" opacity="0.5">
<path d="M446.957 246.743C445.49 253.665 440.355 258.141 435.221 262.894C424.034 273.185 410.739 280.892 397.215 287.768C302.498 335.899 186.417 345.036 89.6829 301.15C73.0409 293.582 56.9033 284.399 43.1955 272.124C37.7857 267.278 24.032 256.111 22.6567 248.45C20.9604 239.452 39.8488 241.528 45.9921 240.052C46.6797 239.867 47.4133 239.729 48.101 239.544C51.5394 240.144 54.9778 240.698 58.2328 241.067C75.0123 243.051 91.7459 244.943 108.48 246.743C127.322 248.773 146.165 250.665 165.053 252.327C256.423 260.356 352.424 262.433 435.175 222.608C435.908 222.285 436.642 221.916 437.421 221.501C444.298 227.592 448.837 237.837 446.957 246.651V246.743Z" fill="#3291D9"/>
</g>
<path d="M447.232 244.482L439.576 353.435L416.195 685.369C414.911 703.736 402.625 719.426 385.249 725.194C255.506 768.434 142.497 743.976 83.723 724.041C66.5309 718.18 54.5652 702.536 53.3274 684.354L25.4533 288.46L22.6108 248.496C32.9719 249.696 43.3789 252.419 53.6483 253.527C72.9951 255.511 92.4795 256.434 111.78 258.003C148.182 260.956 184.446 265.525 220.893 267.094C287.873 269.955 355.77 266.817 421.284 251.311C429.994 249.235 438.613 246.974 447.186 244.482H447.232Z" fill="#68CEFF"/>
<g style="mix-blend-mode:multiply" opacity="0.5">
<path d="M439.576 353.435L416.195 685.369C414.911 703.736 402.625 719.426 385.249 725.194C255.506 768.434 142.497 743.976 83.7229 724.041C66.5309 718.18 54.5652 702.536 53.3273 684.354L25.4532 288.46C37.4189 335.391 46.9548 382.969 53.9233 430.915C59.5623 469.633 63.6426 508.673 73.6828 546.467C83.7688 584.215 100.319 621.179 127.689 648.96C155.013 676.74 194.302 694.276 232.813 689.154C262.612 685.185 289.569 668.203 310.338 646.329C331.106 624.456 346.372 597.921 360.08 571.017C395.243 502.12 421.971 428.885 439.576 353.481V353.435Z" fill="#68CEFF"/>
</g>
<g style="mix-blend-mode:screen" opacity="0.5">
<path d="M269.214 281.261C220.985 281.538 172.893 276.969 124.984 271.293C108.48 269.355 91.7001 267.232 75.3332 270.186C67.4019 271.616 59.2414 274.477 53.9692 280.615C48.4677 286.983 46.8631 296.028 47.9634 304.38C49.1096 312.733 52.6855 320.532 56.6741 327.961C72.8576 358.188 96.6514 385.184 127.414 400.089C151.666 411.857 178.944 415.595 205.855 416.979C229.145 418.133 252.939 417.533 275.174 410.518C302.59 401.843 326.154 383.799 347.197 364.048C368.24 344.298 387.312 322.47 409.364 303.873C415.416 298.797 421.788 293.813 425.868 287.029C429.032 281.861 433.754 263.725 423.163 263.725C417.433 263.725 410.831 266.309 405.192 267.463C399.094 268.663 392.951 269.816 386.808 270.878C361.776 275.169 336.561 278.169 311.254 279.83C297.272 280.753 283.289 281.215 269.26 281.307L269.214 281.261Z" fill="#9CF1FF"/>
</g>
<g style="mix-blend-mode:screen" opacity="0.5">
<path d="M138.371 281.584C124.021 279.969 109.076 278.307 95.4136 283.014C91.8835 284.26 87.9866 286.568 87.7116 290.306C87.4365 294.182 91.15 297.089 94.4967 299.027C121.133 314.579 151.804 322.332 182.52 324.316C213.237 326.3 244.137 322.655 274.303 316.517C290.395 313.241 306.624 309.134 321.065 301.104C324.687 299.074 332.71 294.413 326.154 290.859C320.745 287.952 313.18 289.198 307.403 289.567C271.14 291.828 234.784 290.49 198.612 287.583C178.486 285.968 158.405 283.845 138.371 281.538V281.584Z" fill="#9CF1FF"/>
</g>
<g style="mix-blend-mode:screen" opacity="0.5">
<path d="M349.077 287.444C347.106 288.275 345.134 289.29 343.759 290.952C342.384 292.613 341.742 295.059 342.75 296.951C344.034 299.35 347.197 299.904 349.902 300.043C353.799 300.227 357.742 300.227 361.685 299.996C368.332 299.581 374.98 298.52 381.215 296.212C384.882 294.874 394.51 291.413 395.427 286.891C396.894 279.276 376.539 281.122 372.779 281.584C364.71 282.599 356.596 284.26 349.077 287.491V287.444Z" fill="#9CF1FF"/>
</g>
<path opacity="0.19" d="M233.5 0.779755C105.041 0.779755 0.880005 23.8994 0.880005 52.4182C0.880005 52.9258 0.880005 53.4334 0.971696 53.8949L43.929 707.981L46.4046 745.13C46.4046 745.13 48.7428 768.203 59.7457 775.31C60.4334 775.817 61.2127 776.187 61.9921 776.51C68.9148 779.325 161.844 790.446 233.546 789.015C305.249 790.446 398.223 779.325 405.1 776.51C406.98 775.771 408.63 774.571 410.097 773.049C418.762 764.235 420.734 745.084 420.734 745.084L422.98 710.843L466.029 53.8949C466.121 53.3873 466.121 52.8796 466.121 52.4182C466.166 23.8994 362.005 0.779755 233.5 0.779755Z" fill="#9CCAFF"/>
<path opacity="0.33" d="M465.754 58.648L423.439 703.09L422.934 710.889L420.688 745.13C420.688 745.13 420.688 745.222 420.688 745.36C420.688 745.453 420.688 745.545 420.688 745.637C420.688 745.776 420.688 745.868 420.688 746.053C420.688 746.191 420.688 746.376 420.596 746.606C420.596 746.745 420.596 746.929 420.504 747.114C420.504 747.391 420.413 747.622 420.367 747.945C420.367 748.129 420.275 748.36 420.275 748.591C420.275 748.914 420.183 749.283 420.092 749.652C420.092 749.883 420 750.114 420 750.344C419.908 750.76 419.863 751.129 419.725 751.59C419.725 751.729 419.633 751.913 419.633 752.098C419.45 753.021 419.175 753.99 418.946 755.005C418.946 755.282 418.854 755.559 418.762 755.836C418.671 756.297 418.487 756.713 418.35 757.22C418.35 757.359 418.258 757.543 418.212 757.728C418.212 757.912 418.12 758.097 418.075 758.282C417.937 758.743 417.799 759.158 417.616 759.666C417.479 760.035 417.341 760.404 417.203 760.82C417.066 761.281 416.883 761.696 416.699 762.112C416.516 762.527 416.378 762.942 416.195 763.404C416.057 763.819 415.874 764.235 415.691 764.65L415.003 765.988C414.82 766.357 414.682 766.68 414.499 767.096C414.086 767.88 413.628 768.619 413.169 769.357C413.077 769.495 412.986 769.634 412.894 769.772C412.481 770.372 412.023 770.972 411.61 771.48C411.427 771.71 411.244 771.941 411.06 772.126C410.739 772.449 410.51 772.818 410.189 773.095V773.003C408.722 774.479 407.117 775.771 405.192 776.51C398.315 779.325 305.34 790.446 233.638 789.015C161.935 790.446 69.0065 779.325 62.0838 776.51C59.9291 775.633 58.0494 774.11 56.4448 772.264C56.3531 772.172 56.1698 771.987 56.0781 771.895C55.6655 771.387 55.2987 770.834 54.8861 770.326C54.7486 770.095 54.611 769.911 54.4735 769.726C54.1067 769.218 53.7858 768.618 53.419 768.065C53.3273 767.788 53.144 767.557 53.0064 767.373C52.7313 766.819 52.4104 766.219 52.1354 765.665C52.0437 765.388 51.9061 765.158 51.7686 764.881C51.4935 764.281 51.2643 763.681 51.0351 763.081C50.9434 762.804 50.8058 762.573 50.7141 762.296L50.0265 760.497C49.9348 760.22 49.8431 759.943 49.7514 759.666C49.5222 759.066 49.3388 758.466 49.2012 757.912C49.1096 757.636 49.0179 757.359 48.9262 757.082C48.8345 756.805 48.7886 756.528 48.6969 756.251C48.6053 755.928 48.5136 755.605 48.4677 755.374C48.376 755.144 48.3302 754.867 48.2385 754.636C48.1468 754.082 47.9634 753.528 47.8717 753.021C47.8717 752.79 47.78 752.559 47.7342 752.329C47.6425 751.821 47.505 751.313 47.4591 750.852C47.3674 750.621 47.3674 750.437 47.3216 750.252C47.2299 749.791 47.184 749.375 47.0924 748.96C47.0924 748.775 47.0007 748.637 47.0007 748.452C46.909 748.083 46.8631 747.714 46.8173 747.391C46.8173 747.206 46.8173 747.114 46.7256 746.93C46.7256 746.653 46.6339 746.376 46.6339 746.145C46.6339 746.006 46.6339 745.914 46.6339 745.776C46.6339 745.684 46.6339 745.499 46.6339 745.407C46.6339 745.222 46.6339 745.13 46.6339 745.13L44.1582 707.981L43.6998 701.106L1.06342 55.6485C1.7511 57.8174 2.7597 59.894 4.13507 61.7398C4.2726 61.8783 4.41014 62.0629 4.59352 62.2475L4.68521 62.3398C5.8772 63.6319 7.11503 64.8317 8.30701 66.1238C8.30701 66.1238 8.30701 66.1238 8.3987 66.2161C8.3987 66.2161 8.49039 66.2161 8.49039 66.3084C8.58209 66.3084 9.13223 66.6776 9.81991 67.139L53.3273 684.354C54.611 702.536 66.5767 718.18 83.7229 724.041C142.497 743.976 255.506 768.434 385.249 725.194C402.625 719.426 414.865 703.736 416.195 685.369L460.023 63.1243C461.72 62.1552 463.37 61.0476 464.745 59.5709C465.066 59.2941 465.433 58.971 465.754 58.6941V58.648Z" fill="#A7C0FF"/>
<path opacity="0.33" d="M204.984 768.711C198.795 772.818 191.047 773.372 183.666 773.695C154.05 774.894 124.342 773.925 94.8634 770.834C81.4765 769.403 67.7687 767.465 55.8947 761.05C53.3274 759.666 50.8975 758.051 48.5594 756.297C48.4677 755.974 48.376 755.651 48.3302 755.421C48.2385 755.19 48.1927 754.913 48.101 754.682C48.0093 754.128 47.8259 753.575 47.7342 753.067C47.7342 752.836 47.6425 752.606 47.5967 752.375C47.505 751.867 47.3674 751.36 47.3216 750.898C47.2299 750.667 47.2299 750.483 47.1841 750.298C47.0924 749.837 47.0465 749.421 46.9548 749.006C46.9548 748.821 46.8631 748.683 46.8631 748.498C46.7714 748.129 46.7256 747.76 46.6798 747.437C46.6798 747.253 46.6798 747.16 46.5881 746.976C46.5881 746.699 46.4964 746.422 46.4964 746.191C46.4964 746.053 46.4964 745.96 46.4964 745.822C46.4964 745.73 46.4964 745.545 46.4964 745.453C46.4964 745.268 46.4964 745.176 46.4964 745.176L44.0207 708.028L43.5623 701.152C45.1669 703.044 46.8173 704.843 48.6053 706.597C64.4678 722.472 84.9149 733.224 105.958 740.423C136.033 750.76 167.895 754.728 198.704 762.619C201.867 763.45 205.764 765.527 205.03 768.711H204.984Z" fill="#A7FFFF"/>
<path opacity="0.33" d="M423.438 703.09L422.934 710.889L420.688 745.13C420.688 745.13 420.688 745.222 420.688 745.361C420.688 745.453 420.688 745.545 420.688 745.637C420.688 745.776 420.688 745.868 420.688 746.053C420.688 746.191 420.688 746.376 420.596 746.606C420.596 746.745 420.596 746.93 420.504 747.114C420.504 747.391 420.413 747.622 420.367 747.945C420.367 748.129 420.275 748.36 420.275 748.591C420.275 748.914 420.183 749.283 420.092 749.652C420.092 749.883 420 750.114 420 750.344C419.908 750.76 419.863 751.129 419.725 751.59C419.725 751.729 419.633 751.913 419.633 752.098C419.45 753.021 419.175 753.99 418.946 755.005C418.946 755.282 418.854 755.559 418.762 755.836C418.671 756.297 418.487 756.713 418.35 757.22C418.35 757.359 418.258 757.543 418.212 757.728C416.516 758.928 414.774 760.035 412.94 761.004C401.066 767.465 387.358 769.403 373.971 770.788C344.492 773.833 314.785 774.848 285.122 773.649C277.741 773.372 269.993 772.772 263.804 768.665C263.025 765.481 266.968 763.404 270.131 762.573C300.939 754.682 332.802 750.714 362.877 740.377C383.874 733.132 404.321 722.426 420.229 706.551C421.33 705.443 422.476 704.29 423.53 703.09H423.438Z" fill="#A7FFFF"/>
<path d="M466.166 52.4182C466.166 52.9258 466.166 53.4334 466.075 53.8949C462.545 81.7215 359.805 104.103 233.546 104.103C107.288 104.103 4.5018 81.7676 0.971696 53.8949C0.880005 53.3873 0.880005 52.8796 0.880005 52.4182C0.880005 23.8994 105.041 0.779755 233.5 0.779755C361.96 0.779755 466.121 23.8994 466.121 52.4182H466.166Z" stroke="white" stroke-width="0.81" stroke-miterlimit="10"/>
<path d="M233.5 0.779755C105.041 0.779755 0.880005 23.8994 0.880005 52.4182C0.880005 52.9258 0.880005 53.4334 0.971696 53.8949L43.929 707.981L46.4046 745.13C46.4046 745.13 48.7428 768.203 59.7457 775.31C60.4334 775.817 61.2128 776.187 61.9921 776.51C68.9148 779.325 161.844 790.446 233.546 789.015C305.249 790.446 398.223 779.325 405.1 776.51C406.98 775.771 408.63 774.571 410.097 773.049C418.762 764.235 420.734 745.084 420.734 745.084L422.98 710.843L466.029 53.8949C466.121 53.3873 466.121 52.8796 466.121 52.4182C466.166 23.8994 362.005 0.779755 233.5 0.779755Z" stroke="white" stroke-width="0.81" stroke-miterlimit="10"/>
<path opacity="0.19" d="M443.794 74.5226L408.905 706.966C403.404 715.365 395.152 721.872 385.249 725.148C368.057 730.87 351.094 735.439 334.544 738.946L364.114 95.1502C431.232 92.9813 443.794 74.4764 443.794 74.4764V74.5226Z" fill="#9CCAFF"/>
<path opacity="0.19" d="M131.998 737.469C119.299 734.608 107.746 731.516 97.4308 728.378C92.617 726.902 88.0324 725.471 83.7688 723.995C81.8891 723.349 80.147 722.61 78.4049 721.733L31.6424 78.122L55.8947 84.075L98.0268 94.458L131.998 737.516V737.469Z" fill="#9CCAFF"/>
<path opacity="0.19" d="M97.4308 728.378C92.617 726.902 88.0324 725.471 83.7688 723.995C81.8891 723.349 80.147 722.61 78.4049 721.733L31.6424 78.122L55.8947 84.075C58.1411 108.394 87.3906 566.172 97.4308 728.378Z" fill="#9CCAFF"/>
</svg>
