<svg width="33" height="28" viewBox="0 0 33 28" fill="none" xmlns="http://www.w3.org/2000/svg">
<path d="M18.8571 0C11.0471 0 4.71429 6.26889 4.71429 14H0L6.11286 20.0511L6.22286 20.2689L12.5714 14H7.85714C7.85714 7.98 12.7757 3.11111 18.8571 3.11111C24.9386 3.11111 29.8571 7.98 29.8571 14C29.8571 20.02 24.9386 24.8889 18.8571 24.8889C15.8243 24.8889 13.0743 23.66 11.0943 21.6844L8.86286 23.8933C11.4243 26.4289 14.9443 28 18.8571 28C26.6671 28 33 21.7311 33 14C33 6.26889 26.6671 0 18.8571 0ZM17.2857 7.77778V15.5556L24.0114 19.5067L25.1429 17.6244L19.6429 14.3889V7.77778H17.2857Z" fill="#676767"/>
</svg>
