<svg width="117" height="106" viewBox="0 0 117 106" fill="none" xmlns="http://www.w3.org/2000/svg">
<g clip-path="url(#clip0_64_2)">
<path fill-rule="evenodd" clip-rule="evenodd" d="M61.6648 3.37273C58.596 3.11577 55.5271 3.11577 52.4583 3.37273C53.9173 3.07847 55.4197 2.95 56.9656 2.98727C58.5745 2.95397 60.1409 3.08244 61.6648 3.37273Z" fill="#D2EFF9"/>
<path fill-rule="evenodd" clip-rule="evenodd" d="M61.6647 3.37272C61.9203 3.37272 62.1762 3.37272 62.4319 3.37272C63.4789 3.65232 64.5659 3.84505 65.6925 3.9509C80.1977 7.18769 90.6509 15.5392 97.0524 29.0054C98.736 33.1514 99.855 37.4556 100.409 41.9182C100.66 44.8736 100.66 47.8287 100.409 50.7836C100.236 51.3408 100.172 51.919 100.217 52.5182C99.9388 53.5703 99.747 54.6625 99.6417 55.7945C99.3438 57.0024 99.0241 58.2229 98.6827 59.4563C98.3559 60.1191 98.1 60.8257 97.9155 61.5763C96.4325 65.7146 94.3545 69.505 91.6819 72.9473C91.6498 72.8509 91.618 72.7545 91.586 72.6582C94.2578 67.8477 95.984 62.7404 96.7647 57.3363C97.0622 55.9036 97.1901 54.4262 97.1483 52.9036C97.1481 51.7775 97.0842 50.6853 96.9565 49.6273C95.198 32.944 86.6309 21.4126 71.2548 15.0327C68.9077 14.203 66.542 13.5284 64.1581 13.0091C63.2434 12.7414 62.2844 12.6129 61.2811 12.6236C44.3521 11.7321 31.4695 18.4776 22.6327 32.86C20.3483 37.3688 18.8459 42.1228 18.1253 47.1218C18.0069 47.1432 17.911 47.2074 17.8376 47.3145C17.552 50.0711 17.488 52.8335 17.6458 55.6018C17.6838 55.9645 17.7797 56.2856 17.9335 56.5654C18.6602 62.1607 20.3863 67.4285 23.1122 72.3691C23.0483 72.4333 22.9843 72.4976 22.9204 72.5618C19.9233 68.6587 17.6856 64.3545 16.2073 59.6491C16.2247 59.138 16.0968 58.6883 15.8237 58.3C15.5685 57.2115 15.3128 56.1193 15.0565 55.0236C14.9511 53.8915 14.7593 52.7994 14.4811 51.7473C13.0584 32.6015 20.4747 18.1148 36.7302 8.28726C41.6652 5.66002 46.9079 4.02184 52.4581 3.37272C55.527 3.11575 58.5958 3.11575 61.6647 3.37272Z" fill="#22B3E3"/>
<path fill-rule="evenodd" clip-rule="evenodd" d="M62.4319 3.37274C63.5833 3.34045 64.6702 3.53318 65.6925 3.95092C64.5659 3.84507 63.4789 3.65234 62.4319 3.37274Z" fill="#C2EAF7"/>
<path fill-rule="evenodd" clip-rule="evenodd" d="M61.2812 12.6236C62.2846 12.6129 63.2436 12.7414 64.1583 13.0091C63.155 13.0198 62.196 12.8913 61.2812 12.6236Z" fill="#7CD1EE"/>
<path fill-rule="evenodd" clip-rule="evenodd" d="M58.4041 21.2964C58.2204 21.2091 58.0604 21.0807 57.9246 20.9109C57.8926 21.2642 57.8608 21.6176 57.8287 21.9709C58.4653 27.2663 60.5431 31.9239 64.0623 35.9436C65.955 37.7817 67.9051 39.5482 69.9123 41.2436C73.9133 45.0039 77.334 49.2118 80.1738 53.8673C80.5641 55.1287 80.8518 56.4136 81.0369 57.7218C79.665 55.442 78.0667 53.322 76.2418 51.3618C75.3467 50.0769 74.2599 48.9849 72.9812 48.0855C72.3241 47.7817 71.6846 47.4284 71.0631 47.0255C69.386 45.6089 67.6598 44.292 65.8845 43.0745C63.753 41.0947 61.5792 39.1354 59.3631 37.1964C58.3662 35.9698 57.2792 34.8457 56.1025 33.8236C55.0209 31.9048 54.7014 32.0334 55.1435 34.2091C55.2411 35.2118 55.5608 36.1113 56.1025 36.9073C57.2976 39.332 58.8961 41.4842 60.8976 43.3636C64.6351 46.3654 68.4071 49.3204 72.214 52.2291C74.8896 54.467 77.2231 57.0047 79.2148 59.8418C79.7399 60.7675 80.1554 61.7311 80.4615 62.7327C80.498 63.3793 80.6898 63.9575 81.0369 64.4673C81.1718 66.1342 81.2356 67.8043 81.2287 69.4782C81.1315 70.3185 81.0037 71.1536 80.8451 71.9836C80.5822 72.4531 80.3904 72.9671 80.2697 73.5255C79.0872 76.4175 77.4251 78.9871 75.2828 81.2345C75.2719 81.0208 75.208 80.8281 75.091 80.6564C76.3251 78.4783 77.2202 76.1656 77.7763 73.7182C77.9036 73.2406 77.9675 72.7266 77.9681 72.1764C78.0076 71.4114 77.8796 70.7049 77.5845 70.0564C77.5845 69.9922 77.5845 69.9278 77.5845 69.8636C77.6307 69.4015 77.5028 69.016 77.2009 68.7073C75.8554 65.8146 74.0012 63.3092 71.6386 61.1909C70.6995 59.6734 69.5487 58.2923 68.1861 57.0473C64.4064 53.6986 60.5704 50.4223 56.6779 47.2182C53.5692 44.4826 51.0437 41.3026 49.1017 37.6782C48.2669 35.0172 47.6595 32.319 47.2795 29.5836C47.5778 28.9207 47.9294 28.2783 48.3345 27.6564C50.9142 24.3251 53.951 21.4985 57.4451 19.1764C57.573 19.2406 57.7008 19.3049 57.8287 19.3691C58.0236 20.0157 58.2154 20.658 58.4041 21.2964Z" fill="#0898DB"/>
<path fill-rule="evenodd" clip-rule="evenodd" d="M58.404 21.2964C58.404 21.3606 58.404 21.4249 58.404 21.4891C58.4347 21.8077 58.5625 22.0646 58.7876 22.26C59.9954 24.8136 61.498 27.1907 63.295 29.3909C66.5112 32.961 69.7718 36.4943 73.077 39.9909C75.3585 42.7124 77.4042 45.6033 79.2147 48.6636C79.8935 50.2826 80.5648 51.8886 81.2286 53.4818C81.4131 54.2325 81.669 54.939 81.9958 55.6018C82.2605 56.9228 82.5802 58.2075 82.9548 59.4564C83.0149 60.139 82.9508 60.7814 82.763 61.3836C82.2396 60.1388 81.6642 58.9183 81.0368 57.7218C80.8517 56.4136 80.564 55.1287 80.1737 53.8673C77.3339 49.2118 73.9132 45.004 69.9122 41.2436C67.905 39.5482 65.9549 37.7817 64.0622 35.9436C60.543 31.9239 58.4652 27.2663 57.8286 21.9709C57.8606 21.6177 57.8925 21.2642 57.9245 20.9109C58.0603 21.0807 58.2203 21.2091 58.404 21.2964Z" fill="#1083B6"/>
<path fill-rule="evenodd" clip-rule="evenodd" d="M58.4041 21.4891C58.7117 21.6408 58.8396 21.8977 58.7877 22.26C58.5625 22.0646 58.4347 21.8077 58.4041 21.4891Z" fill="#92C7DE"/>
<path fill-rule="evenodd" clip-rule="evenodd" d="M99.4501 22.8382C99.2767 22.9748 99.2128 23.1676 99.2583 23.4164C98.7587 22.5888 98.2471 21.7537 97.7239 20.9109C97.8518 20.654 97.9796 20.654 98.1075 20.9109C98.5599 21.5567 99.0074 22.1993 99.4501 22.8382Z" fill="#4682BE"/>
<path fill-rule="evenodd" clip-rule="evenodd" d="M15.0566 24.38C14.9983 23.9375 14.8065 23.8733 14.4812 24.1873C15.1032 23.0051 15.8704 21.9129 16.7828 20.9109C16.8468 20.9751 16.9107 21.0395 16.9746 21.1036C16.3233 22.2033 15.6839 23.2955 15.0566 24.38Z" fill="#3F7CBB"/>
<path fill-rule="evenodd" clip-rule="evenodd" d="M99.4499 22.8382C102.995 27.7335 105.553 33.1298 107.122 39.0273C107.194 39.4509 107.322 39.8364 107.506 40.1837C107.506 40.2478 107.506 40.3122 107.506 40.3764C107.588 40.8601 107.715 41.3098 107.889 41.7255C109.013 47.1985 109.333 52.7235 108.848 58.3C108.516 59.6036 108.324 60.9527 108.273 62.3473C108.094 62.5531 108.03 62.81 108.081 63.1182C107.859 63.6526 107.731 64.2308 107.697 64.8527C107.344 65.8312 107.089 66.859 106.93 67.9364C106.539 68.7921 106.22 69.6915 105.971 70.6346C101.489 82.7369 93.6887 91.9878 82.5713 98.3873C82.1543 98.4355 81.8345 98.6282 81.6122 98.9655C81.1674 99.0603 80.7838 99.253 80.4614 99.5437C79.6764 99.7136 78.973 100.035 78.3516 100.507C77.9866 100.564 77.6668 100.693 77.3926 100.893C77.0276 100.95 76.7078 101.078 76.4335 101.278C75.9604 101.327 75.5768 101.52 75.2827 101.856C74.2441 101.99 73.2851 102.311 72.4057 102.82C72.0384 102.765 71.7188 102.829 71.4467 103.013C70.9867 102.966 70.6031 103.095 70.2958 103.398C69.67 103.587 69.0305 103.716 68.3778 103.784C67.3158 103.897 66.2929 104.09 65.309 104.362C64.1963 104.59 63.0455 104.718 61.8565 104.747C59.3026 104.908 56.7451 104.972 54.1844 104.94C52.9609 104.88 51.7462 104.751 50.5401 104.555C49.8738 104.357 49.1706 104.228 48.4303 104.169C47.8514 104.13 47.276 104.066 46.704 103.976C46.3176 103.702 45.8701 103.574 45.3614 103.591C45.0657 103.437 44.7461 103.372 44.4024 103.398C44.0159 103.124 43.5684 102.995 43.0598 103.013C42.4002 102.684 41.697 102.427 40.9499 102.242C40.3736 101.899 39.7343 101.707 39.0319 101.664C38.7104 101.214 38.263 101.021 37.6893 101.085C36.4901 100.676 35.3393 100.162 34.2368 99.5437C34.1461 99.2727 33.9543 99.1441 33.6614 99.1582C33.2166 99.0634 32.833 98.8707 32.5106 98.58C32.4199 98.309 32.2281 98.1805 31.9352 98.1946C31.6181 98.1637 31.3625 98.0354 31.168 97.8091C31.0773 97.5381 30.8854 97.4096 30.5926 97.4237C21.3862 91.8006 14.5771 84.0274 10.1655 74.1037C9.683 72.8781 9.20349 71.6576 8.72699 70.4418C8.5424 69.6912 8.28667 68.9846 7.95978 68.3218C8.01114 68.0137 7.94722 67.7568 7.76798 67.5509C7.78533 67.0398 7.65746 66.5902 7.38437 66.2018C7.12872 64.9817 6.87298 63.7611 6.61716 62.54C6.51182 61.4079 6.32002 60.3158 6.04175 59.2637C4.82604 47.7362 7.03178 36.9435 12.659 26.8855C13.2233 25.9399 13.8307 25.0407 14.4811 24.1873C14.8064 23.8733 14.9982 23.9375 15.0565 24.38C13.7061 27.1651 12.6192 30.056 11.7958 33.0527C11.4545 33.3399 11.3266 33.7254 11.4122 34.2091C10.7428 36.6731 10.2953 39.1786 10.0696 41.7255C9.77644 42.7693 9.64857 43.8615 9.68601 45.0018C9.64308 46.0807 9.77096 47.1085 10.0696 48.0855C10.0696 48.7922 10.0696 49.4987 10.0696 50.2055C10.088 51.3374 10.2159 52.4295 10.4532 53.4818C10.3811 54.5214 10.5729 55.485 11.0286 56.3727C11.1822 56.6699 11.2461 56.991 11.2204 57.3364C11.2031 57.8475 11.331 58.2971 11.604 58.6855C11.7833 58.8913 11.8472 59.1482 11.7958 59.4564C11.7785 59.9675 11.9064 60.4171 12.1795 60.8055C12.417 61.1358 12.5448 61.5213 12.5631 61.9618C12.4991 62.5383 12.6909 62.9879 13.1385 63.3109C16.7717 72.701 22.7175 80.2495 30.9762 85.9564C31.7231 86.4278 32.4903 86.8452 33.2778 87.2091C33.3685 87.4801 33.5603 87.6086 33.8532 87.5946C34.0477 87.8208 34.3034 87.9492 34.6204 87.98C34.7112 88.251 34.903 88.3795 35.1958 88.3655C36.03 88.913 36.9251 89.3626 37.8811 89.7146C38.2664 90.0162 38.7141 90.2089 39.2237 90.2927C39.8156 90.6206 40.4549 90.8775 41.1417 91.0637C42.1008 91.5345 43.1238 91.8558 44.2106 92.0273C44.2745 92.0273 44.3385 92.0273 44.4024 92.0273C44.7097 92.3306 45.0933 92.4592 45.5532 92.4127C46.1037 92.6313 46.6791 92.7597 47.2794 92.7982C47.3596 92.9373 47.4874 93.0337 47.6631 93.0873C49.3759 93.4296 51.1021 93.6543 52.8417 93.7618C55.3352 93.7618 57.8286 93.7618 60.3221 93.7618C61.9018 93.8355 63.4362 93.7069 64.9254 93.3764C65.7672 93.0399 66.6623 92.8472 67.6106 92.7982C68.1193 92.8155 68.5667 92.6872 68.9532 92.4127C69.3493 92.4095 69.7329 92.3453 70.104 92.22C70.7475 92.1834 71.323 91.9907 71.8303 91.6418C72.062 91.5004 72.3176 91.4362 72.5975 91.4491C73.4483 91.273 74.2155 90.9517 74.8991 90.4855C75.3207 90.5587 75.6404 90.4302 75.8581 90.1C76.1324 89.9002 76.4522 89.7716 76.8172 89.7146C77.5201 89.7142 78.0955 89.4573 78.5434 88.9437C78.8658 88.653 79.2494 88.4603 79.6942 88.3655C80.1446 88.3477 80.4641 88.155 80.6532 87.7873C85.1827 85.1032 89.2744 81.8268 92.9286 77.9582C93.3289 77.7491 93.5846 77.428 93.6958 76.9946C97.0666 72.7931 99.7518 68.1677 101.752 63.1182C102.199 62.7952 102.391 62.3456 102.327 61.7691C102.345 61.3285 102.473 60.9431 102.711 60.6127C103.012 60.304 103.14 59.9185 103.094 59.4564C103.232 58.2599 103.488 57.1036 103.861 55.9873C104.191 55.3426 104.319 54.6361 104.245 53.8673C104.245 53.8031 104.245 53.7387 104.245 53.6746C104.384 53.594 104.479 53.4656 104.533 53.2891C104.628 52.6498 104.66 52.0075 104.629 51.3618C105.021 46.4527 104.829 41.5703 104.053 36.7146C104.094 35.9735 103.902 35.331 103.478 34.7873C102.735 31.52 101.648 28.3722 100.217 25.3437C100.231 25.0494 100.103 24.8566 99.8335 24.7655C99.6941 24.2925 99.5023 23.8429 99.2581 23.4164C99.2127 23.1676 99.2766 22.9748 99.4499 22.8382Z" fill="#1162AD"/>
<path fill-rule="evenodd" clip-rule="evenodd" d="M99.8336 24.7654C100.103 24.8566 100.231 25.0493 100.217 25.3436C99.9475 25.2525 99.8196 25.0597 99.8336 24.7654Z" fill="#86AED5"/>
<path fill-rule="evenodd" clip-rule="evenodd" d="M47.2795 29.5836C47.6594 32.319 48.2669 35.0172 49.1016 37.6782C51.0436 41.3026 53.5691 44.4826 56.6778 47.2182C60.5703 50.4223 64.4064 53.6986 68.186 57.0473C69.5486 58.2923 70.6994 59.6734 71.6385 61.1909C70.0722 59.778 68.4737 58.3968 66.8434 57.0473C62.0719 53.525 57.4048 49.8632 52.8418 46.0618C50.3921 43.6982 48.3463 41.0322 46.7041 38.0636C46.4524 37.3675 46.2606 36.6608 46.1287 35.9436C46.1331 34.4629 46.1971 32.9853 46.3205 31.5109C46.5361 31.021 46.696 30.5072 46.8 29.9691C46.9358 29.7993 47.0957 29.671 47.2795 29.5836Z" fill="#1484B7"/>
<path fill-rule="evenodd" clip-rule="evenodd" d="M11.7958 33.0527C11.7239 33.4763 11.596 33.8618 11.4122 34.2091C11.3266 33.7254 11.4545 33.3399 11.7958 33.0527Z" fill="#719ECD"/>
<path fill-rule="evenodd" clip-rule="evenodd" d="M46.3204 31.5109C46.1971 32.9853 46.1331 34.4629 46.1286 35.9436C46.0011 35.3689 45.9372 34.7587 45.9368 34.1127C45.9 33.193 46.0279 32.3257 46.3204 31.5109Z" fill="#70B4D3"/>
<path fill-rule="evenodd" clip-rule="evenodd" d="M55.1436 34.2091C55.5344 35.0648 55.854 35.9643 56.1026 36.9073C55.5609 36.1113 55.2412 35.2119 55.1436 34.2091Z" fill="#6FC2E9"/>
<path fill-rule="evenodd" clip-rule="evenodd" d="M103.478 34.7873C103.902 35.3309 104.094 35.9735 104.053 36.7145C103.806 36.109 103.614 35.4666 103.478 34.7873Z" fill="#5B91C6"/>
<path fill-rule="evenodd" clip-rule="evenodd" d="M42.6763 40.3764C42.4994 39.2325 42.0838 39.2325 41.4295 40.3764C41.0421 44.2804 42.129 47.6852 44.6902 50.5909C46.3869 52.4241 48.209 54.1265 50.1566 55.6982C54.0469 58.5149 57.883 61.4058 61.6648 64.3709C63.8228 66.3664 65.709 68.5828 67.323 71.02C67.9293 72.2675 68.4406 73.5524 68.8574 74.8745C68.8988 77.7072 68.9947 80.534 69.1451 83.3545C67.5464 85.1523 65.6284 86.5014 63.391 87.4018C62.7299 87.5142 62.1545 87.7711 61.6648 88.1727C60.4217 88.3491 59.2068 88.5418 58.0205 88.7509C56.3553 88.7469 54.6931 88.6827 53.0336 88.5582C52.6625 88.4329 52.2789 88.3687 51.8828 88.3655C51.5111 88.0449 51.0634 87.9166 50.5402 87.98C50.4123 87.9158 50.2845 87.8514 50.1566 87.7873C49.6493 87.4384 49.0739 87.2457 48.4304 87.2091C48.2359 86.9828 47.9802 86.8545 47.6631 86.8236C47.2981 86.7666 46.9784 86.638 46.7041 86.4382C46.6134 86.1672 46.4216 86.0387 46.1287 86.0527C41.42 83.4093 37.6798 79.7475 34.9082 75.0673C33.9837 73.2743 33.1206 71.4756 32.3189 69.6709C32.3135 69.0125 32.1217 68.4344 31.7435 67.9364C30.501 62.9657 30.7568 58.0834 32.5107 53.2891C32.7359 53.0937 32.8636 52.8368 32.8943 52.5182C33.056 51.8047 33.4078 51.2265 33.9492 50.7836C34.7976 51.5384 35.5327 52.3734 36.155 53.2891C35.9712 53.2018 35.8112 53.0734 35.6754 52.9036C35.5475 53.3533 35.5475 53.8031 35.6754 54.2527C37.0549 56.4781 38.6852 58.5018 40.5664 60.3236C43.1529 62.5535 45.902 64.5449 48.814 66.2982C49.062 66.3926 49.3178 66.4248 49.5812 66.3945C49.5683 66.1134 49.6322 65.8564 49.773 65.6236C50.0212 65.7759 50.245 65.9686 50.4443 66.2018C50.9865 66.9062 51.402 67.6771 51.691 68.5145C51.677 68.8088 51.8049 69.0016 52.0746 69.0927C52.4671 70.4027 52.563 71.7518 52.3623 73.14C51.5408 74.5118 50.3261 75.09 48.7181 74.8745C47.5053 74.9206 46.3865 74.6637 45.3615 74.1036C45.0542 73.8003 44.6706 73.6717 44.2107 73.7182C43.8936 73.6873 43.638 73.559 43.4435 73.3327C43.3528 73.0617 43.161 72.9332 42.8681 72.9473C41.7102 72.4304 40.6871 71.7236 39.7992 70.8273C39.5286 70.362 39.145 70.0407 38.6484 69.8636C38.4426 70.0084 38.4106 70.2011 38.5525 70.4418C39.7421 73.5318 41.8201 75.7804 44.7861 77.1873C45.3922 77.6691 46.0955 77.926 46.8959 77.9582C47.1008 78.1382 47.3565 78.2026 47.6631 78.1509C48.7342 78.4465 49.853 78.5751 51.0197 78.5364C51.8535 78.5362 52.6527 78.472 53.4172 78.3436C55.3359 77.9254 56.9342 76.9618 58.2123 75.4527C58.687 75.224 58.8788 74.8385 58.7877 74.2964C58.8516 74.1678 58.9157 74.0395 58.9795 73.9109C59.1995 73.1119 59.2316 72.2766 59.0754 71.4054C59.0221 71.2289 58.9262 71.1006 58.7877 71.02C58.7877 70.9558 58.7877 70.8914 58.7877 70.8273C58.7043 70.3152 58.5125 69.8654 58.2123 69.4782C58.2263 69.1839 58.0984 68.9912 57.8287 68.9C57.2656 67.8321 56.5622 66.8685 55.7189 66.0091C55.5271 65.4309 55.1435 65.0454 54.5681 64.8527C50.9886 62.2821 47.4723 59.6159 44.0189 56.8545C41.8914 54.881 40.1013 52.6646 38.6484 50.2054C38.565 49.6934 38.3732 49.2435 38.073 48.8564C37.7055 47.2064 37.6096 45.5361 37.7853 43.8454C38.6258 41.1051 40.0643 38.7282 42.1009 36.7145C42.35 37.9301 42.5418 39.1508 42.6763 40.3764Z" fill="#0F61AD"/>
<path fill-rule="evenodd" clip-rule="evenodd" d="M56.1025 33.8236C57.2793 34.8457 58.3662 35.9698 59.3632 37.1964C61.5793 39.1354 63.753 41.0947 65.8845 43.0745C64.5359 42.3961 63.2574 41.5932 62.0484 40.6655C60.2844 38.9573 58.59 37.1906 56.9657 35.3655C56.7056 34.8202 56.4179 34.3062 56.1025 33.8236Z" fill="#34B5E4"/>
<path fill-rule="evenodd" clip-rule="evenodd" d="M107.122 39.0273C107.463 39.3144 107.591 39.6999 107.506 40.1836C107.322 39.8364 107.194 39.4509 107.122 39.0273Z" fill="#A3C1DF"/>
<path fill-rule="evenodd" clip-rule="evenodd" d="M42.6761 40.3764C42.7189 41.0821 42.9107 41.7245 43.2515 42.3036C43.2375 42.5979 43.3654 42.7907 43.6351 42.8818C43.8793 43.3083 44.0711 43.758 44.2105 44.2309C44.1965 44.5252 44.3245 44.7179 44.5941 44.8091C44.9237 45.1412 45.1793 45.5266 45.3614 45.9655C45.5376 46.4644 45.8574 46.8499 46.3204 47.1218C47.6941 48.47 49.1008 49.7869 50.54 51.0727C53.1378 52.9873 55.8231 54.7538 58.5958 56.3727C58.6865 56.6437 58.8783 56.7723 59.1712 56.7582C63.2633 59.2284 66.8755 62.312 70.0081 66.0091C70.7504 66.8581 71.2937 67.8217 71.6384 68.9C71.6691 69.2186 71.7968 69.4755 72.022 69.6709C72.8654 72.1995 72.9931 74.7691 72.4056 77.38C72.1325 77.7684 72.0047 78.218 72.022 78.7291C71.6952 79.2603 71.4395 79.8384 71.2548 80.4636C70.8871 81.0093 70.5676 81.5874 70.2958 82.1982C69.8955 82.4073 69.6398 82.7284 69.5286 83.1618C69.4006 83.226 69.2729 83.2904 69.145 83.3546C68.9946 80.534 68.8987 77.7073 68.8573 74.8746C68.4405 73.5524 67.9291 72.2675 67.3228 71.02C65.7088 68.5828 63.8226 66.3664 61.6646 64.3709C57.8828 61.4058 54.0468 58.5149 50.1564 55.6982C48.2089 54.1265 46.3867 52.4241 44.69 50.5909C42.1289 47.6852 41.0419 44.2804 41.4294 40.3764C42.0836 39.2325 42.4993 39.2325 42.6761 40.3764Z" fill="#064F91"/>
<path fill-rule="evenodd" clip-rule="evenodd" d="M107.506 40.3764C107.624 40.3978 107.72 40.4619 107.794 40.5691C107.889 40.9494 107.921 41.3348 107.889 41.7255C107.716 41.3098 107.588 40.8601 107.506 40.3764Z" fill="#B5CEE5"/>
<path fill-rule="evenodd" clip-rule="evenodd" d="M42.6763 40.3764C43.0171 40.9555 43.2089 41.5979 43.2517 42.3036C42.9108 41.7245 42.719 41.0821 42.6763 40.3764Z" fill="#779DC2"/>
<path fill-rule="evenodd" clip-rule="evenodd" d="M43.2515 42.3036C43.5212 42.3948 43.6491 42.5875 43.6351 42.8818C43.3655 42.7907 43.2375 42.5979 43.2515 42.3036Z" fill="#8BADCC"/>
<path fill-rule="evenodd" clip-rule="evenodd" d="M10.0697 41.7255C10.0697 43.8455 10.0697 45.9655 10.0697 48.0855C9.77102 47.1085 9.64314 46.0807 9.68607 45.0018C9.64863 43.8615 9.7765 42.7693 10.0697 41.7255Z" fill="#4F87C1"/>
<path fill-rule="evenodd" clip-rule="evenodd" d="M44.2108 44.2309C44.4804 44.3221 44.6084 44.5148 44.5944 44.8091C44.3247 44.7179 44.1968 44.5252 44.2108 44.2309Z" fill="#5F8CB7"/>
<path fill-rule="evenodd" clip-rule="evenodd" d="M100.409 41.9182C100.696 43.385 100.824 44.8947 100.793 46.4473C100.828 47.9367 100.7 49.3821 100.409 50.7836C100.66 47.8287 100.66 44.8737 100.409 41.9182Z" fill="#C7ECF8"/>
<path fill-rule="evenodd" clip-rule="evenodd" d="M45.3616 45.9655C45.8246 46.2374 46.1443 46.6228 46.3206 47.1218C45.8576 46.8499 45.5378 46.4644 45.3616 45.9655Z" fill="#4A7AAC"/>
<path fill-rule="evenodd" clip-rule="evenodd" d="M72.9812 48.0854C74.26 48.9849 75.3467 50.0769 76.2419 51.3618C75.091 50.334 74.0041 49.2418 72.9812 48.0854Z" fill="#6DBFE8"/>
<path fill-rule="evenodd" clip-rule="evenodd" d="M38.0731 48.8564C38.3732 49.2435 38.565 49.6934 38.6485 50.2054C38.2008 49.8824 38.009 49.4328 38.0731 48.8564Z" fill="#BDD3E8"/>
<path fill-rule="evenodd" clip-rule="evenodd" d="M18.1255 47.1218C17.6886 50.26 17.6247 53.4078 17.9337 56.5655C17.7799 56.2856 17.684 55.9645 17.646 55.6018C17.4882 52.8335 17.5521 50.0711 17.8378 47.3146C17.9112 47.2074 18.0071 47.1432 18.1255 47.1218Z" fill="#5FC7EA"/>
<path fill-rule="evenodd" clip-rule="evenodd" d="M10.0696 50.2054C10.3596 51.2518 10.4875 52.3439 10.4532 53.4818C10.2159 52.4295 10.088 51.3373 10.0696 50.2054Z" fill="#588FC5"/>
<path fill-rule="evenodd" clip-rule="evenodd" d="M104.629 51.3618C104.66 52.0075 104.628 52.6498 104.533 53.2891C104.48 53.4656 104.384 53.594 104.245 53.6745C104.287 52.8641 104.414 52.0932 104.629 51.3618Z" fill="#5D92C7"/>
<path fill-rule="evenodd" clip-rule="evenodd" d="M32.8944 52.5182C32.8637 52.8368 32.736 53.0937 32.5108 53.2891C32.4588 52.9268 32.5867 52.6699 32.8944 52.5182Z" fill="#93B6D9"/>
<path fill-rule="evenodd" clip-rule="evenodd" d="M14.4812 51.7473C14.7595 52.7994 14.9513 53.8916 15.0566 55.0236C14.6409 53.9964 14.4491 52.9042 14.4812 51.7473Z" fill="#CBEDF8"/>
<path fill-rule="evenodd" clip-rule="evenodd" d="M36.1548 53.2891C40.47 57.6914 45.0094 61.8028 49.7728 65.6236C49.6321 65.8564 49.5682 66.1133 49.581 66.3945C49.3177 66.4248 49.0618 66.3926 48.8138 66.2982C45.9019 64.5449 43.1527 62.5535 40.5663 60.3236C38.6851 58.5018 37.0547 56.4781 35.6753 54.2527C35.5474 53.8031 35.5474 53.3533 35.6753 52.9036C35.8111 53.0734 35.9711 53.2018 36.1548 53.2891Z" fill="#0A5193"/>
<path fill-rule="evenodd" clip-rule="evenodd" d="M81.2288 53.4818C81.7063 54.0843 81.962 54.7908 81.996 55.6018C81.6691 54.939 81.4133 54.2325 81.2288 53.4818Z" fill="#A5D1E4"/>
<path fill-rule="evenodd" clip-rule="evenodd" d="M10.4532 53.4818C10.7673 54.3969 10.9591 55.3605 11.0287 56.3727C10.573 55.485 10.3812 54.5214 10.4532 53.4818Z" fill="#4B84BF"/>
<path fill-rule="evenodd" clip-rule="evenodd" d="M104.245 53.8673C104.319 54.6361 104.191 55.3426 103.862 55.9873C103.921 55.2434 104.049 54.5368 104.245 53.8673Z" fill="#5B90C5"/>
<path fill-rule="evenodd" clip-rule="evenodd" d="M100.217 52.5182C100.249 53.6751 100.057 54.7673 99.6418 55.7946C99.7471 54.6625 99.9389 53.5703 100.217 52.5182Z" fill="#BBE7F6"/>
<path fill-rule="evenodd" clip-rule="evenodd" d="M58.5959 56.3727C58.8888 56.3587 59.0806 56.4872 59.1714 56.7582C58.8785 56.7723 58.6867 56.6437 58.5959 56.3727Z" fill="#9EBAD4"/>
<path fill-rule="evenodd" clip-rule="evenodd" d="M96.9565 49.6273C97.0842 50.6853 97.1481 51.7775 97.1483 52.9036C97.1901 54.4262 97.0621 55.9036 96.7646 57.3363C96.9244 54.7702 96.9883 52.2004 96.9565 49.6273Z" fill="#8FD8F0"/>
<path fill-rule="evenodd" clip-rule="evenodd" d="M11.2206 57.3364C11.4936 57.7247 11.6215 58.1743 11.6042 58.6855C11.3311 58.2971 11.2032 57.8475 11.2206 57.3364Z" fill="#6597C9"/>
<path fill-rule="evenodd" clip-rule="evenodd" d="M15.8238 58.3C16.0969 58.6883 16.2248 59.138 16.2074 59.6491C15.9343 59.2607 15.8065 58.8111 15.8238 58.3Z" fill="#B5E5F5"/>
<path fill-rule="evenodd" clip-rule="evenodd" d="M108.848 58.3C108.814 59.6971 108.622 61.0462 108.273 62.3473C108.324 60.9527 108.516 59.6036 108.848 58.3Z" fill="#AEC9E3"/>
<path fill-rule="evenodd" clip-rule="evenodd" d="M11.796 59.4564C12.0691 59.8447 12.197 60.2943 12.1796 60.8055C11.9065 60.4171 11.7786 59.9675 11.796 59.4564Z" fill="#6396C8"/>
<path fill-rule="evenodd" clip-rule="evenodd" d="M98.6827 59.4564C98.6488 60.2674 98.3931 60.9739 97.9155 61.5764C98.1 60.8257 98.3559 60.1191 98.6827 59.4564Z" fill="#B5E5F5"/>
<path fill-rule="evenodd" clip-rule="evenodd" d="M103.094 59.4564C103.14 59.9185 103.013 60.304 102.711 60.6127C102.664 60.1506 102.792 59.7651 103.094 59.4564Z" fill="#6094C8"/>
<path fill-rule="evenodd" clip-rule="evenodd" d="M6.04179 59.2636C6.32006 60.3157 6.51186 61.4079 6.6172 62.54C6.20146 61.5128 6.00966 60.4206 6.04179 59.2636Z" fill="#C3D8EA"/>
<path fill-rule="evenodd" clip-rule="evenodd" d="M82.955 59.4564C83.2059 60.1346 83.2059 60.8411 82.955 61.5764C82.8386 61.5525 82.7747 61.4883 82.7632 61.3836C82.951 60.7814 83.015 60.139 82.955 59.4564Z" fill="#93C8DE"/>
<path fill-rule="evenodd" clip-rule="evenodd" d="M12.563 61.9618C12.8632 62.349 13.055 62.7988 13.1384 63.3109C12.6908 62.9879 12.499 62.5383 12.563 61.9618Z" fill="#548AC3"/>
<path fill-rule="evenodd" clip-rule="evenodd" d="M102.327 61.7691C102.391 62.3456 102.199 62.7952 101.752 63.1182C101.835 62.6061 102.027 62.1563 102.327 61.7691Z" fill="#5F93C7"/>
<path fill-rule="evenodd" clip-rule="evenodd" d="M80.4614 62.7327C80.8397 63.2307 81.0315 63.8089 81.0368 64.4673C80.6897 63.9575 80.4979 63.3793 80.4614 62.7327Z" fill="#77C5EA"/>
<path fill-rule="evenodd" clip-rule="evenodd" d="M108.081 63.1182C108.113 63.636 108.081 64.15 107.985 64.66C107.912 64.7671 107.816 64.8313 107.698 64.8527C107.731 64.2308 107.859 63.6526 108.081 63.1182Z" fill="#BDD3E8"/>
<path fill-rule="evenodd" clip-rule="evenodd" d="M54.5681 64.8527C55.1435 65.0454 55.5271 65.4309 55.7189 66.0091C55.2715 65.6878 54.8879 65.3024 54.5681 64.8527Z" fill="#6295C8"/>
<path fill-rule="evenodd" clip-rule="evenodd" d="M7.38437 66.2018C7.65746 66.5902 7.78533 67.0398 7.76798 67.5509C7.49489 67.1626 7.36701 66.7129 7.38437 66.2018Z" fill="#ABC6E2"/>
<path fill-rule="evenodd" clip-rule="evenodd" d="M81.0369 64.4673C81.3179 65.4483 81.4458 66.4761 81.4205 67.5509C81.4201 68.2289 81.3562 68.8713 81.2287 69.4782C81.2356 67.8044 81.1717 66.1342 81.0369 64.4673Z" fill="#63BEE8"/>
<path fill-rule="evenodd" clip-rule="evenodd" d="M106.93 67.9364C106.833 68.9391 106.513 69.8386 105.971 70.6346C106.22 69.6915 106.539 68.7921 106.93 67.9364Z" fill="#AAC6E2"/>
<path fill-rule="evenodd" clip-rule="evenodd" d="M7.95972 68.3218C8.28661 68.9846 8.54234 69.6911 8.72693 70.4418C8.2494 69.8393 7.99367 69.1328 7.95972 68.3218Z" fill="#B7CFE6"/>
<path fill-rule="evenodd" clip-rule="evenodd" d="M31.7434 67.9364C32.1216 68.4344 32.3134 69.0126 32.3188 69.6709C31.9717 69.1612 31.7799 68.583 31.7434 67.9364Z" fill="#BBD1E7"/>
<path fill-rule="evenodd" clip-rule="evenodd" d="M51.691 68.5145C51.9607 68.6057 52.0886 68.7984 52.0746 69.0927C51.8049 69.0015 51.677 68.8088 51.691 68.5145Z" fill="#81ABD4"/>
<path fill-rule="evenodd" clip-rule="evenodd" d="M57.8287 68.9C58.0983 68.9912 58.2263 69.1839 58.2123 69.4782C57.9426 69.387 57.8147 69.1943 57.8287 68.9Z" fill="#A2C1DF"/>
<path fill-rule="evenodd" clip-rule="evenodd" d="M71.6384 68.9C71.9461 69.0517 72.074 69.3086 72.022 69.6709C71.7969 69.4755 71.6691 69.2186 71.6384 68.9Z" fill="#92B1CE"/>
<path fill-rule="evenodd" clip-rule="evenodd" d="M77.2009 68.7073C77.5028 69.016 77.6307 69.4015 77.5845 69.8636C77.2826 69.5549 77.1546 69.1694 77.2009 68.7073Z" fill="#99D4F0"/>
<path fill-rule="evenodd" clip-rule="evenodd" d="M38.6484 69.8636C39.145 70.0408 39.5286 70.362 39.7993 70.8273C39.3027 70.6502 38.9191 70.3289 38.6484 69.8636Z" fill="#5289C2"/>
<path fill-rule="evenodd" clip-rule="evenodd" d="M58.2122 69.4782C58.5124 69.8654 58.7042 70.3152 58.7876 70.8273C58.34 70.5043 58.1482 70.0546 58.2122 69.4782Z" fill="#B2CBE4"/>
<path fill-rule="evenodd" clip-rule="evenodd" d="M80.8452 71.9836C80.8749 72.6035 80.6831 73.1175 80.2698 73.5255C80.3904 72.9671 80.5822 72.4531 80.8452 71.9836Z" fill="#B0DEF3"/>
<path fill-rule="evenodd" clip-rule="evenodd" d="M58.7876 71.02C58.9261 71.1006 59.022 71.2289 59.0753 71.4055C59.2314 72.2766 59.1994 73.1119 58.9794 73.9109C58.9961 72.9402 58.9322 71.9765 58.7876 71.02Z" fill="#72A1CE"/>
<path fill-rule="evenodd" clip-rule="evenodd" d="M77.5845 70.0564C77.8797 70.7049 78.0076 71.4114 77.9681 72.1764C77.9675 72.7266 77.9036 73.2406 77.7763 73.7182C77.7809 72.493 77.7168 71.2725 77.5845 70.0564Z" fill="#6BC2E9"/>
<path fill-rule="evenodd" clip-rule="evenodd" d="M42.8679 72.9473C43.1608 72.9332 43.3526 73.0617 43.4433 73.3327C43.1504 73.3468 42.9586 73.2182 42.8679 72.9473Z" fill="#77A4D0"/>
<path fill-rule="evenodd" clip-rule="evenodd" d="M44.2107 73.7182C44.6706 73.6717 45.0542 73.8003 45.3615 74.1036C44.9016 74.1501 44.518 74.0215 44.2107 73.7182Z" fill="#6092C7"/>
<path fill-rule="evenodd" clip-rule="evenodd" d="M58.7878 74.2964C58.8789 74.8385 58.6871 75.224 58.2124 75.4527C58.4057 75.0588 58.5975 74.6733 58.7878 74.2964Z" fill="#6294C8"/>
<path fill-rule="evenodd" clip-rule="evenodd" d="M44.7861 77.1873C45.5597 77.2884 46.263 77.5453 46.896 77.9582C46.0956 77.926 45.3922 77.6691 44.7861 77.1873Z" fill="#97B9DB"/>
<path fill-rule="evenodd" clip-rule="evenodd" d="M93.6959 76.9945C93.5847 77.428 93.329 77.7491 92.9287 77.9582C93.04 77.5247 93.2956 77.2036 93.6959 76.9945Z" fill="#5F92C7"/>
<path fill-rule="evenodd" clip-rule="evenodd" d="M72.4057 77.38C72.4229 77.8911 72.2952 78.3408 72.022 78.7291C72.0048 78.218 72.1325 77.7684 72.4057 77.38Z" fill="#8AABCB"/>
<path fill-rule="evenodd" clip-rule="evenodd" d="M47.6631 78.1509C49.578 78.2883 51.4961 78.3527 53.4172 78.3436C52.6527 78.472 51.8534 78.5362 51.0196 78.5364C49.8529 78.5751 48.7341 78.4466 47.6631 78.1509Z" fill="#84AED5"/>
<path fill-rule="evenodd" clip-rule="evenodd" d="M72.0221 78.7291C72.0142 79.4491 71.7586 80.0273 71.2549 80.4636C71.4396 79.8384 71.6953 79.2603 72.0221 78.7291Z" fill="#AEC5DB"/>
<path fill-rule="evenodd" clip-rule="evenodd" d="M75.0909 80.6564C75.2079 80.8281 75.2718 81.0208 75.2827 81.2346C74.8673 81.685 74.4837 82.1668 74.1319 82.68C73.9434 82.7939 73.8154 82.7295 73.7483 82.4873C74.1286 81.8158 74.5761 81.2055 75.0909 80.6564Z" fill="#46AEE2"/>
<path fill-rule="evenodd" clip-rule="evenodd" d="M70.296 82.1982C70.1848 82.6316 69.9291 82.9527 69.5288 83.1618C69.6401 82.7284 69.8957 82.4073 70.296 82.1982Z" fill="#B2C7DC"/>
<path fill-rule="evenodd" clip-rule="evenodd" d="M46.1287 86.0527C46.4215 86.0387 46.6133 86.1672 46.7041 86.4382C46.4112 86.4523 46.2194 86.3237 46.1287 86.0527Z" fill="#7BA7D1"/>
<path fill-rule="evenodd" clip-rule="evenodd" d="M47.6631 86.8236C47.9801 86.8545 48.2358 86.9828 48.4303 87.2091C48.0697 87.2613 47.814 87.1328 47.6631 86.8236Z" fill="#8BB2D7"/>
<path fill-rule="evenodd" clip-rule="evenodd" d="M48.4304 87.2091C49.0739 87.2457 49.6493 87.4385 50.1566 87.7873C49.5014 87.7819 48.926 87.5892 48.4304 87.2091Z" fill="#6999CA"/>
<path fill-rule="evenodd" clip-rule="evenodd" d="M33.2778 87.2091C33.5707 87.195 33.7625 87.3236 33.8532 87.5946C33.5604 87.6086 33.3686 87.4801 33.2778 87.2091Z" fill="#9BBDDD"/>
<path fill-rule="evenodd" clip-rule="evenodd" d="M63.391 87.4018C62.9014 87.8035 62.3259 88.0604 61.6648 88.1727C62.1545 87.7711 62.7299 87.5142 63.391 87.4018Z" fill="#9EBEDD"/>
<path fill-rule="evenodd" clip-rule="evenodd" d="M34.6206 87.98C34.9135 87.9659 35.1053 88.0945 35.196 88.3654C34.9031 88.3795 34.7113 88.251 34.6206 87.98Z" fill="#93B7DA"/>
<path fill-rule="evenodd" clip-rule="evenodd" d="M50.5403 87.98C51.0635 87.9166 51.5112 88.045 51.8829 88.3655C51.3742 88.3828 50.9268 88.2545 50.5403 87.98Z" fill="#8AB0D6"/>
<path fill-rule="evenodd" clip-rule="evenodd" d="M80.6534 87.7873C80.4642 88.155 80.1447 88.3477 79.6943 88.3655C79.9166 88.0282 80.2364 87.8355 80.6534 87.7873Z" fill="#5D91C6"/>
<path fill-rule="evenodd" clip-rule="evenodd" d="M53.0337 88.5582C54.6932 88.6827 56.3553 88.7468 58.0206 88.7509C57.3523 88.8791 56.649 88.9434 55.9107 88.9436C54.9005 88.9847 53.9415 88.8561 53.0337 88.5582Z" fill="#95B9DA"/>
<path fill-rule="evenodd" clip-rule="evenodd" d="M78.5434 88.9436C78.0955 89.4573 77.5201 89.7142 76.8171 89.7145C77.3135 89.3114 77.8889 89.0545 78.5434 88.9436Z" fill="#5A8EC4"/>
<path fill-rule="evenodd" clip-rule="evenodd" d="M37.8811 89.7145C38.4548 89.6502 38.9023 89.8429 39.2237 90.2927C38.7141 90.2089 38.2664 90.0162 37.8811 89.7145Z" fill="#ACC7E2"/>
<path fill-rule="evenodd" clip-rule="evenodd" d="M75.8582 90.1C75.6405 90.4301 75.3208 90.5587 74.8992 90.4855C75.1734 90.2856 75.4932 90.1571 75.8582 90.1Z" fill="#73A0CE"/>
<path fill-rule="evenodd" clip-rule="evenodd" d="M41.1418 91.0636C42.2286 91.2352 43.2517 91.5564 44.2107 92.0273C43.1239 91.8557 42.1009 91.5345 41.1418 91.0636Z" fill="#95B9DA"/>
<path fill-rule="evenodd" clip-rule="evenodd" d="M74.8993 90.4855C74.2157 90.9517 73.4485 91.273 72.5977 91.4491C73.2812 90.9829 74.0485 90.6616 74.8993 90.4855Z" fill="#79A5D0"/>
<path fill-rule="evenodd" clip-rule="evenodd" d="M71.8302 91.6418C71.3229 91.9907 70.7475 92.1834 70.104 92.22C70.5996 91.8399 71.175 91.6472 71.8302 91.6418Z" fill="#6C9CCC"/>
<path fill-rule="evenodd" clip-rule="evenodd" d="M44.4023 92.0273C44.8623 91.9808 45.2459 92.1094 45.5532 92.4127C45.0932 92.4592 44.7096 92.3306 44.4023 92.0273Z" fill="#9ABCDC"/>
<path fill-rule="evenodd" clip-rule="evenodd" d="M68.9532 92.4127C68.5667 92.6872 68.1193 92.8155 67.6106 92.7982C67.9971 92.5238 68.4446 92.3954 68.9532 92.4127Z" fill="#77A5D0"/>
<path fill-rule="evenodd" clip-rule="evenodd" d="M47.2795 92.7982C49.1686 93.0609 51.0226 93.3822 52.8418 93.7618C51.1022 93.6543 49.376 93.4296 47.6631 93.0873C47.4875 93.0337 47.3597 92.9373 47.2795 92.7982Z" fill="#77A4D0"/>
<path fill-rule="evenodd" clip-rule="evenodd" d="M64.9253 93.3764C63.4361 93.7069 61.9017 93.8354 60.322 93.7618C61.8229 93.5706 63.3573 93.4421 64.9253 93.3764Z" fill="#79A6D1"/>
<path fill-rule="evenodd" clip-rule="evenodd" d="M30.5925 97.4236C30.8854 97.4096 31.0772 97.5381 31.1679 97.8091C30.8751 97.8232 30.6833 97.6946 30.5925 97.4236Z" fill="#7BA7D1"/>
<path fill-rule="evenodd" clip-rule="evenodd" d="M31.9353 98.1946C32.2282 98.1805 32.42 98.309 32.5107 98.58C32.2178 98.5941 32.026 98.4655 31.9353 98.1946Z" fill="#7BA7D1"/>
<path fill-rule="evenodd" clip-rule="evenodd" d="M82.5713 98.3873C82.3822 98.755 82.0627 98.9477 81.6123 98.9654C81.8346 98.6282 82.1543 98.4354 82.5713 98.3873Z" fill="#B1CBE4"/>
<path fill-rule="evenodd" clip-rule="evenodd" d="M33.6614 99.1582C33.9543 99.1441 34.1461 99.2727 34.2368 99.5437C33.9439 99.5577 33.7521 99.4292 33.6614 99.1582Z" fill="#7DA8D2"/>
<path fill-rule="evenodd" clip-rule="evenodd" d="M80.4614 99.5436C79.8866 100.121 79.1832 100.442 78.3516 100.507C78.973 100.035 79.6763 99.7136 80.4614 99.5436Z" fill="#C4D7EA"/>
<path fill-rule="evenodd" clip-rule="evenodd" d="M37.6895 101.085C38.2631 101.021 38.7106 101.214 39.0321 101.664C38.5225 101.58 38.0748 101.387 37.6895 101.085Z" fill="#6494C8"/>
<path fill-rule="evenodd" clip-rule="evenodd" d="M77.3926 100.893C77.1749 101.223 76.8552 101.351 76.4336 101.278C76.7079 101.078 77.0276 100.95 77.3926 100.893Z" fill="#A2C1DF"/>
<path fill-rule="evenodd" clip-rule="evenodd" d="M76.4335 101.278C76.1395 101.615 75.7559 101.807 75.2827 101.856C75.5767 101.52 75.9604 101.327 76.4335 101.278Z" fill="#9BBCDC"/>
<path fill-rule="evenodd" clip-rule="evenodd" d="M39.032 101.664C39.7344 101.707 40.3736 101.899 40.95 102.242C40.2476 102.199 39.6084 102.006 39.032 101.664Z" fill="#72A0CE"/>
<path fill-rule="evenodd" clip-rule="evenodd" d="M75.2828 101.856C74.375 102.289 73.416 102.61 72.4058 102.82C73.2852 102.311 74.2442 101.99 75.2828 101.856Z" fill="#B0CAE4"/>
<path fill-rule="evenodd" clip-rule="evenodd" d="M40.95 102.242C41.697 102.427 42.4002 102.684 43.0598 103.013C42.2527 102.979 41.5495 102.722 40.95 102.242Z" fill="#95B8DA"/>
<path fill-rule="evenodd" clip-rule="evenodd" d="M43.0598 103.013C43.5685 102.995 44.016 103.124 44.4024 103.398C43.8938 103.416 43.4463 103.287 43.0598 103.013Z" fill="#87B0D6"/>
<path fill-rule="evenodd" clip-rule="evenodd" d="M71.4467 103.013C71.1394 103.316 70.7558 103.445 70.2959 103.398C70.6032 103.095 70.9868 102.966 71.4467 103.013Z" fill="#A5C3E0"/>
<path fill-rule="evenodd" clip-rule="evenodd" d="M45.3616 103.591C45.8702 103.574 46.3177 103.702 46.7042 103.976C46.1955 103.994 45.7481 103.865 45.3616 103.591Z" fill="#8DB4D8"/>
<path fill-rule="evenodd" clip-rule="evenodd" d="M68.3779 103.784C67.4283 104.222 66.4054 104.414 65.3091 104.362C66.293 104.089 67.3159 103.897 68.3779 103.784Z" fill="#99BBDC"/>
<path fill-rule="evenodd" clip-rule="evenodd" d="M48.4304 104.169C49.1708 104.228 49.8739 104.357 50.5403 104.555C49.7752 104.629 49.072 104.5 48.4304 104.169Z" fill="#9BBDDC"/>
<path fill-rule="evenodd" clip-rule="evenodd" d="M61.8565 104.747C60.3974 105.042 58.895 105.17 57.3491 105.133C56.2602 105.133 55.2053 105.068 54.1843 104.94C56.7451 104.972 59.3026 104.908 61.8565 104.747Z" fill="#CDDEEE"/>
</g>
<defs>
<clipPath id="clip0_64_2">
<rect width="117" height="106" fill="white"/>
</clipPath>
</defs>
</svg>
