<svg width="374" height="374" viewBox="0 0 374 374" fill="none" xmlns="http://www.w3.org/2000/svg">
<path d="M186.877 359.75C226.872 359.75 265.63 345.881 296.547 320.508C327.464 295.135 348.626 259.827 356.429 220.6C364.231 181.373 358.191 140.654 339.337 105.381C320.483 70.1084 289.982 42.4642 253.031 27.1589C216.079 11.8535 174.964 9.83398 136.691 21.4443C98.4179 33.0547 65.3544 57.5766 43.1343 90.8318C20.9142 124.087 10.9123 164.018 14.8328 203.821C18.7533 243.624 36.3537 280.836 64.6349 309.117M263.71 148.458L194.599 231.4C182.017 246.498 175.717 254.066 167.246 254.45C158.775 254.834 151.822 247.862 137.915 233.955L110.043 206.083" stroke="#00E222" stroke-width="28" stroke-linecap="round"/>
</svg>
