<svg width="433" height="433" viewBox="0 0 433 433" fill="none" xmlns="http://www.w3.org/2000/svg">
<g clip-path="url(#clip0_102_6)">
<path fill-rule="evenodd" clip-rule="evenodd" d="M216.499 126.292C187.714 126.292 164.379 149.627 164.379 178.412C164.379 207.198 187.715 230.533 216.5 230.533C245.285 230.533 268.62 207.198 268.62 178.412C268.62 149.627 245.285 126.292 216.499 126.292ZM275.016 244.412C293.227 228.253 304.703 204.673 304.703 178.412C304.703 129.698 265.213 90.2083 216.499 90.2083C167.786 90.2083 128.296 129.699 128.296 178.412C128.296 204.673 139.772 228.253 157.983 244.412C145.665 250.603 134.295 258.766 124.363 268.698C119.959 273.102 115.901 277.79 112.209 282.719C103.935 293.766 100.039 306.078 100.725 318.503C101.4 330.738 106.433 341.691 113.627 350.533C127.784 367.934 151.522 378.876 176.407 378.876H256.593C281.478 378.876 305.216 367.934 319.373 350.533C326.567 341.691 331.599 330.738 332.275 318.503C332.961 306.078 329.065 293.766 320.79 282.719C317.098 277.79 313.041 273.102 308.637 268.698C298.705 258.766 287.335 250.603 275.016 244.412ZM216.5 266.617C191.512 266.617 167.547 276.543 149.878 294.212C146.692 297.398 143.758 300.788 141.09 304.351C137.417 309.255 136.577 313.33 136.753 316.514C136.94 319.889 138.367 323.767 141.617 327.761C148.348 336.035 161.436 342.793 176.407 342.793H256.593C271.564 342.793 284.652 336.035 291.383 327.761C294.633 323.767 296.06 319.889 296.247 316.514C296.422 313.33 295.583 309.255 291.91 304.351C289.241 300.788 286.308 297.398 283.122 294.212C265.453 276.543 241.488 266.617 216.5 266.617Z" fill="white"/>
<circle cx="346.723" cy="226.763" r="13.4629" transform="rotate(-36.3645 346.723 226.763)" stroke="#F3F3F3" stroke-width="6"/>
<path d="M322.085 201.436C320.006 196.685 325.687 192.403 329.664 195.561L329.852 195.717C335.565 200.667 344.456 198.472 347.21 191.433C349.129 186.526 356.37 187.626 356.746 192.881C357.277 200.303 364.881 205.007 371.724 202.262L372.049 202.126C376.801 200.046 381.082 205.728 377.924 209.704L377.768 209.893C372.818 215.606 375.013 224.497 382.052 227.25C386.959 229.17 385.859 236.41 380.604 236.786C373.182 237.318 368.478 244.921 371.223 251.764L371.36 252.089C373.439 256.841 367.758 261.123 363.781 257.964L363.592 257.808C357.88 252.859 348.989 255.053 346.235 262.093C344.315 266.999 337.075 265.9 336.699 260.644C336.168 253.223 328.564 248.518 321.721 251.264L321.396 251.4C316.569 253.512 312.227 247.615 315.677 243.633C320.627 237.92 318.432 229.029 311.393 226.275C306.486 224.356 307.585 217.115 312.841 216.739C320.381 216.2 325.116 208.361 322.085 201.436Z" stroke="#F3F3F3" stroke-width="6"/>
<circle cx="382.08" cy="167.046" r="10.3045" transform="rotate(-69.0489 382.08 167.046)" stroke="#F3F3F3" stroke-width="5"/>
<path d="M356.183 157.138C353.241 154.557 355.752 149.813 359.48 150.697L359.659 150.743C365.371 152.359 370.963 147.932 370.761 142.054L370.747 141.773C370.491 137.867 375.622 136.288 377.633 139.55L377.726 139.709C380.669 144.972 387.934 145.739 391.91 141.206C394.532 138.217 399.387 140.856 398.305 144.682C396.663 150.484 401.258 156.164 407.275 155.77C411.243 155.51 412.81 160.809 409.339 162.749C404.076 165.691 403.309 172.956 407.842 176.933C410.831 179.554 408.192 184.41 404.366 183.328C398.654 181.712 393.061 186.139 393.264 192.018L393.278 192.298C393.534 196.204 388.403 197.783 386.393 194.521L386.299 194.362C383.403 189.181 376.317 188.356 372.303 192.656L372.115 192.865C369.535 195.807 364.79 193.296 365.674 189.568L365.721 189.389C367.362 183.587 362.767 177.907 356.75 178.301C352.783 178.561 351.215 173.261 354.686 171.322C359.867 168.425 360.691 161.34 356.392 157.327L356.183 157.138Z" stroke="#F3F3F3" stroke-width="5"/>
</g>
<defs>
<clipPath id="clip0_102_6">
<rect width="433" height="433" fill="white"/>
</clipPath>
</defs>
</svg>
