<svg width="36" height="36" viewBox="0 0 36 36" fill="none" xmlns="http://www.w3.org/2000/svg">
<path d="M17.9998 22.5C20.0934 22.5 22.1452 22.88 23.9998 23.5957V24H20.9998C19.3429 24 17.9998 25.3431 17.9998 27C17.9998 28.6569 19.3429 30 20.9998 30H23.9998V31.6855C19.2996 32.3987 14.504 32.2711 9.83865 31.2988L6.07107 30.5137C5.48146 30.3908 5.13061 29.7754 5.39724 29.2354C6.28623 27.435 7.79949 25.8526 9.78103 24.6699C12.1387 23.2628 15.028 22.5 17.9998 22.5ZM30.6013 30C30.4872 30.2315 30.2731 30.4161 29.9998 30.4941V30H30.6013Z" fill="#676767"/>
<path d="M27 21L27 33" stroke="#676767" stroke-width="2.5" stroke-linecap="round"/>
<path d="M33 27L21 27" stroke="#676767" stroke-width="2.5" stroke-linecap="round"/>
<circle cx="18" cy="12" r="7.5" fill="#676767"/>
</svg>
